<?xml version="1.0" encoding="iso-8859-1"?>
<!-- Generator: Adobe Illustrator 18.0.0, SVG Export Plug-In . SVG Version: 6.00 Build 0)  -->
<!DOCTYPE svg PUBLIC "-//W3C//DTD SVG 1.1//EN" "http://www.w3.org/Graphics/SVG/1.1/DTD/svg11.dtd">
<svg xmlns="http://www.w3.org/2000/svg" xmlns:xlink="http://www.w3.org/1999/xlink" version="1.1" id="Capa_1" x="0px" y="0px" viewBox="0 0 77.687 77.687" style="enable-background:new 0 0 77.687 77.687;" xml:space="preserve" width="512px" height="512px">
<path d="M76.687,67.721H70.5v-17.25h3.344c0.553,0,1-0.448,1-1v-3.655c0-0.552-0.447-1-1-1h-1.672V7.346  h1.672V4.605h-1.672V3.417c0-0.276-0.224-0.5-0.5-0.5s-0.5,0.224-0.5,0.5v1.188H70.5V3.417c0-0.552-0.447-1-1-1h-4  c-0.553,0-1,0.448-1,1v41.399h-4.881c1-0.829,1.986-2.287,1.986-4.845V29.638c0-0.283-0.119-0.552-0.329-0.742l-3.26-2.95  l1.665-0.944c0.48-0.272,0.649-0.883,0.377-1.363s-0.882-0.65-1.363-0.377l-1.753,0.993l-4.98-8.299  c-0.181-0.301-0.506-0.485-0.857-0.485H25.771c-0.352,0-0.677,0.184-0.857,0.485l-4.98,8.299l-1.753-0.993  c-0.482-0.273-1.09-0.104-1.363,0.377c-0.272,0.48-0.104,1.091,0.377,1.363l1.665,0.944l-3.26,2.95  c-0.21,0.19-0.329,0.459-0.329,0.742v10.333c0,2.318,0.8,3.873,1.965,4.845H13V3.417c0-0.552-0.447-1-1-1H8c-0.553,0-1,0.448-1,1  v1.188H6.328V3.417c0-0.276-0.224-0.5-0.5-0.5s-0.5,0.224-0.5,0.5v1.188H3.656v2.741h1.672v37.471H3.656c-0.553,0-1,0.448-1,1v3.655  c0,0.552,0.447,1,1,1H7v17.25H1c-0.553,0-1,0.448-1,1v5.549c0,0.552,0.447,1,1,1h7h4h26.437h0.813H65.5h4h7.187c0.553,0,1-0.448,1-1  v-5.549C77.687,68.169,77.24,67.721,76.687,67.721z M72.844,48.471H70.5v-1.655h2.344V48.471z M71.172,7.346v37.471H70.5V7.346  H71.172z M64.5,67.721H13v-17.25h51.5V67.721z M32.573,35.804h11.728c0.518,1.154,0.993,2.812,1.259,5.167l-14.244,0.001  C31.582,38.616,32.056,36.958,32.573,35.804z M33.858,33.804c0.365-0.369,0.654-0.529,0.772-0.583h7.604  c0.133,0.062,0.421,0.223,0.778,0.583H33.858z M45.66,41.97c0.017,0.213,0.027,0.445,0.041,0.668H31.174  c0.014-0.223,0.024-0.454,0.041-0.667L45.66,41.97z M45.752,43.638c0.006,0.161,0.006,0.335,0.01,0.501l-14.648,0.002  c0.004-0.166,0.004-0.341,0.01-0.503H45.752z M17.271,30.082l3.171-2.869c0.073-0.066,0.136-0.143,0.187-0.227l5.709-9.515h24.201  l5.709,9.515c0.051,0.084,0.113,0.161,0.187,0.227l3.171,2.869v9.89c0,1.691-0.534,2.885-1.588,3.549  c-0.901,0.568-1.966,0.629-2.383,0.629c-0.131,0-0.214-0.006-0.321-0.011l-7.543,0.001c-0.004-0.171-0.01-0.335-0.015-0.501h4.496  c0.276,0,0.5-0.224,0.5-0.5s-0.224-0.5-0.5-0.5h-4.54c-0.013-0.225-0.025-0.451-0.042-0.668l7.077,0  c1.26-0.095,3.642-0.903,3.642-3.285c0-0.276-0.224-0.5-0.5-0.5s-0.5,0.224-0.5,0.5c0,2.048-2.606,2.279-2.679,2.286l-7.13,0  c-0.898-8.543-4.492-9.623-4.953-9.726c-0.072-0.016-0.146-0.024-0.219-0.024h-7.938c-0.073,0-0.146,0.008-0.219,0.024  c-0.461,0.103-4.055,1.183-4.953,9.727l-7.093,0c-0.11-0.008-2.716-0.228-2.716-2.288c0-0.276-0.224-0.5-0.5-0.5s-0.5,0.224-0.5,0.5  c0,2.382,2.382,3.19,3.679,3.286l7.04,0c-0.016,0.216-0.029,0.442-0.042,0.667h-3.958c-0.276,0-0.5,0.224-0.5,0.5s0.224,0.5,0.5,0.5  h3.914c-0.005,0.167-0.012,0.332-0.015,0.503l-7.633,0.001c-0.018,0.001-0.101,0.007-0.231,0.007c-1.483,0-3.971-0.543-3.971-4.178  V30.082z M64.312,46.816v1.655H13v-1.655H64.312z M6.328,7.346H7v37.471H6.328V7.346z M4.656,48.471v-1.655H7v1.655H4.656z   M2,69.721h5v3.549H2V69.721z M9,73.271V49.471v-3.655V4.417h2v41.399v3.655v23.799H9z M38.437,73.271H13v-3.549h51.5v3.549H39.25  H38.437z M66.5,73.271V4.417h2v41.399v3.655v23.799H66.5z M75.687,73.271H70.5v-3.549h5.187V73.271z M27.354,37.971  c0.288,0,0.563-0.125,0.753-0.342c0.189-0.217,0.276-0.505,0.238-0.792c-0.009-0.063-0.938-6.298-8.971-6.298  c-0.463,0-0.865,0.318-0.973,0.769c-0.021,0.085-0.481,2.114,0.965,3.944C20.792,37.056,23.479,37.971,27.354,37.971z   M25.967,35.925c-2.427-0.172-4.145-0.815-5.01-1.886c-0.41-0.508-0.569-1.041-0.622-1.462  C23.878,32.857,25.361,34.676,25.967,35.925z M48.529,36.838c-0.038,0.286,0.049,0.575,0.238,0.792  c0.19,0.217,0.465,0.342,0.753,0.342c3.875,0,6.563-0.915,7.987-2.719c1.446-1.83,0.985-3.858,0.965-3.944  c-0.107-0.451-0.51-0.769-0.973-0.769C49.468,30.54,48.538,36.775,48.529,36.838z M56.539,32.576  c-0.052,0.415-0.206,0.937-0.601,1.436c-0.858,1.086-2.583,1.739-5.03,1.912C51.514,34.676,52.996,32.857,56.539,32.576z   M54.042,26.138H22.833l4.521-7.5h22.167L54.042,26.138z" fill="#3bbcff"/>
<g>
</g>
<g>
</g>
<g>
</g>
<g>
</g>
<g>
</g>
<g>
</g>
<g>
</g>
<g>
</g>
<g>
</g>
<g>
</g>
<g>
</g>
<g>
</g>
<g>
</g>
<g>
</g>
<g>
</g>
</svg>
